<?xml version="1.0" encoding="utf-8"?>
<!-- Generator: Adobe Illustrator 17.1.0, SVG Export Plug-In . SVG Version: 6.00 Build 0)  -->
<!DOCTYPE svg PUBLIC "-//W3C//DTD SVG 1.1//EN" "http://www.w3.org/Graphics/SVG/1.1/DTD/svg11.dtd">
<svg version="1.1" id="レイヤー_1" xmlns="http://www.w3.org/2000/svg" xmlns:xlink="http://www.w3.org/1999/xlink" x="0px"
	 y="0px" viewBox="0 0 1280 800" enable-background="new 0 0 1280 800" xml:space="preserve">
<rect fill="#FFFFFF" width="1280" height="800"/>
<g>
	<path fill="#595757" stroke="#595757" stroke-width="0.5066" stroke-miterlimit="10" d="M677.6,316.1c-3.2,0.3-4.3,3.7-11.2,3.7
		s-14.4,0-22.2,0c0-15,0-28.6,0-32c0-5.9-8.5-1.9-10.1,1.3c-1.1,2.1,2.4,1.3,2.4,6.4c0,3.7,0,13.4,0,24.3c-8.5,0-17.4,0-26.2,0
		c-2.1,0-4.3-0.3-6.4-0.3c-1.1,0-2.4-0.8-3.5,0.3c-1.6,1.6-4.8,6.1-1.3,6.4c3.2,0,6.4-1.9,15.8-1.9c6.7,0,13.9,0,21.6,0
		c0,17.4,0,36.9,0,42.2c0,6.9,7.7,2.7,7.7-3.5c0-2.7,0-20.8,0-38.7c10.1,0,20.8,0,31.5,0c3.7,0,6.7,0.3,6.9-1.3
		C683.5,321.2,680.8,315.8,677.6,316.1z"/>
	<g>
		<path fill="#595757" stroke="#595757" stroke-width="0.5066" stroke-miterlimit="10" d="M634.1,418.7c1.3-2.1,1.6-5.1-2.9-5.1
			c-1.9,0-2.9-0.3-5.9,4.3c-5.9,9.6-12.8,15-26.7,18.4c-2.1,0.5-4,1.6,0,1.6C613,438.2,627.7,430.4,634.1,418.7z"/>
		<path fill="#595757" stroke="#595757" stroke-width="0.5066" stroke-miterlimit="10" d="M677.6,431.8c-8.3-2.4-19.2-8.5-32-20.8
			c8,0,16.8,0,25.1,0c3.7,0,6.7-0.8,6.9-1.9c0.5-1.9-2.1-6.4-5.3-6.1s-3.5,3.2-10.1,3.2c-3.2,0-10.4,0-18.7,0c0-2.7,0-4.8,0-6.4
			c0.3,0,0.8,0,1.1-0.3c4.3-0.8,12.6-2.1,12.6-6.7c0-1.3-1.3-3.5-2.9-4c-4.5-1.9-5.3,0.8-7.5,1.9c-3.5,1.9-6.7,3.5-10.7,4.5
			c-5.1,1.6-10.4,1.9-15.8,1.3c-2.7-0.3-2.1,2.4,0,2.7c3.2,0.5,6.7,1.1,9.9,1.1c2.4,0,4.5,0,6.9,0c0,1.3,0,3.2,0,5.6
			c-13.1,0-26.2,0-27.5,0c-1.1,0-3.2-0.3-4.3,0.5c-1.6,1.3-2.9,5.9,0.5,6.1c3.2,0,5.6-1.6,15-1.6c2.9,0,9.1,0,16.3,0
			c0,10.1,0,22.7,0,23.8c0,6.7,6.4,1.9,6.4-1.6c0-6.1,0-13.6,0-20.3c6.1,11.5,15.2,18.4,24.8,23.8c4,2.1,5.6,2.1,8.8,1.3
			c2.1-0.3,4-1.3,5.6-2.4C685.7,433.4,682.4,433.1,677.6,431.8z"/>
		<path fill="#595757" stroke="#595757" stroke-width="0.5066" stroke-miterlimit="10" d="M664,462.5c-0.8-0.5-1.9-0.8-2.9-0.8
			c0-6.1,0-13.4,0-15.2c0-3.5,1.6-8-2.9-8c-3.2,0-3.7,1.9-7.2,1.9h-24.3c-0.3-0.5-0.8-0.8-1.3-1.3c-4-1.6-5.9,0-6.9,2.4
			c-0.8,1.3,1.9,2.1,1.9,4.8c0,0.5,0,1.6,0,3.2c-0.8,0-1.6-0.3-2.1-0.3c-4.8-1.1-1.6,5.9,2.1,6.7c0,5.6,0,12.6,0,15.8
			c0,5.1,6.1,2.4,6.1-0.3c0-0.5,0-1.6,0-2.9c1.1,0.3,2.7,0.5,4.8,0.5c4,0,15.5-0.8,23.2-0.8c0,0.8,0,1.6,0,2.4
			c0,7.5,6.4,4.5,6.4-0.3c0-0.3,0-0.8,0-1.3c1.9,0.3,3.7,0.3,4.5-0.5C667.2,466.7,665.4,463.3,664,462.5z M626.6,464.3
			c0-2.7,0-5.6,0-8.5c1.6-0.3,3.5-0.5,5.1-0.5c4-0.5,8-1.1,12-1.1C651.2,453.9,635.2,462.2,626.6,464.3z M633.6,465.7
			c-1.6-1.1,2.4-3.5,3.2-3.7c4.8-2.4,5.3-2.9,9.6-4.8c1.9-0.8,3.7-1.6,5.6-2.7c1.1-0.5,1.9-1.9,1.3-3.2c-0.3-1.1-0.8-1.9-2.4-1.9
			c-1.1,0-3.7,0.3-6.4,0.3c-5.9,0.3-12.6,0.3-17.6,0.3c0-0.3,0-0.5,0-0.8c0-2.4,0.3-4,0.5-5.6h24c1.3,0,2.1,0,2.9,0.5
			c0.5,0.3,0.5,2.1,0.5,4.5c0,3.5,0,8.8,0,13.6C649.9,463,634.6,466.5,633.6,465.7z"/>
	</g>
	<g>
		
			<path fill="#595757" stroke="#595757" stroke-width="0.6695" stroke-linecap="round" stroke-linejoin="round" stroke-miterlimit="10" d="
			M606.1,501.5v0.8H601v12.8h-1.1v-12.8h-5.1v-0.8H606.1z"/>
		
			<path fill="#595757" stroke="#595757" stroke-width="0.6695" stroke-linecap="round" stroke-linejoin="round" stroke-miterlimit="10" d="
			M621,501.5c2.1,0,3.7,0.8,5.1,2.1c1.3,1.3,2.1,2.9,2.1,5.1c0,1.9-0.8,3.7-2.1,5.1c-1.3,1.3-3.2,2.1-5.1,2.1
			c-2.1,0-3.7-0.8-5.1-2.1c-1.3-1.3-2.1-2.9-2.1-5.1c0-1.9,0.8-3.7,2.1-5.1C617.3,502,619.2,501.5,621,501.5z M621,514.5
			c1.6,0,3.2-0.5,4.3-1.9c1.1-1.1,1.9-2.7,1.9-4.3s-0.5-3.2-1.9-4.3c-1.1-1.1-2.7-1.9-4.3-1.9s-3.2,0.5-4.3,1.9
			c-1.1,1.1-1.9,2.7-1.9,4.3s0.5,3.2,1.9,4.3C617.8,513.7,619.4,514.5,621,514.5z"/>
		
			<path fill="#595757" stroke="#595757" stroke-width="0.6695" stroke-linecap="round" stroke-linejoin="round" stroke-miterlimit="10" d="
			M645.1,508.1v1.1h-8.5v-1.1H645.1z"/>
		
			<path fill="#595757" stroke="#595757" stroke-width="0.6695" stroke-linecap="round" stroke-linejoin="round" stroke-miterlimit="10" d="
			M663.8,501.5l-6.7,6.9l7.2,6.9H663l-7.2-6.9v6.9h-1.1v-13.6h1.1v6.9l6.7-6.9L663.8,501.5L663.8,501.5z"/>
		
			<path fill="#595757" stroke="#595757" stroke-width="0.6695" stroke-linecap="round" stroke-linejoin="round" stroke-miterlimit="10" d="
			M678.4,501.5l6.4,13.9h-1.1l-2.1-4.8H675l-2.1,4.8h-1.1l6.4-13.9L678.4,501.5L678.4,501.5z M681.1,509.5l-2.9-6.4l-2.9,6.4H681.1z
			"/>
	</g>
</g>
</svg>
