<?xml version="1.0" encoding="utf-8"?>
<!-- Generator: Adobe Illustrator 17.1.0, SVG Export Plug-In . SVG Version: 6.00 Build 0)  -->
<!DOCTYPE svg PUBLIC "-//W3C//DTD SVG 1.1//EN" "http://www.w3.org/Graphics/SVG/1.1/DTD/svg11.dtd">
<svg version="1.1" id="レイヤー_1" xmlns="http://www.w3.org/2000/svg" xmlns:xlink="http://www.w3.org/1999/xlink" x="0px"
	 y="0px" viewBox="1030.1 195.9 180 408" enable-background="new 1030.1 195.9 180 408" xml:space="preserve">
<path fill="#FFFFFF" d="M1210.1,286.9c0,49.7-40.3,90-90,90s-90-40.3-90-90s40.3-90,90-90S1210.1,237.2,1210.1,286.9z M1120.1,233.1
	c5.8,0,11.2,2.2,14.8,6.7c2.5,3.1,4.1,6.8,4.7,10.6c0.7,4.7-0.4,8.5-2.5,12.6c-0.9,1.8,0.7,1.3,1.8,0.9c1.6-0.7,3.1-1.6,4.5-2.5
	c2.9-2,5.4-4.3,7.6-7c4.1-5.4,6.1-12.4,5-19.1c-1.1-6.8-5-13-10.6-17.3c-7.2-5.4-14.8-7.6-25-7.6c-10.3,0-18,2.2-25,7.6
	c-5.6,4.1-9.5,10.3-10.6,17.3c-1.1,6.8,0.9,13.7,5,19.1c2.2,2.7,4.7,5,7.6,7c1.4,0.9,2.9,1.8,4.5,2.5c1.1,0.5,2.7,0.9,1.8-0.9
	c-2.2-4.1-3.2-7.9-2.5-12.6c0.5-4,2.2-7.7,4.7-10.6C1108.9,235.4,1114.5,233.1,1120.1,233.1z M1105.3,334.1
	c-2.5-3.1-4.1-6.8-4.7-10.6c-0.7-4.7,0.4-8.5,2.5-12.6c0.9-1.8-0.7-1.3-1.8-0.9c-1.6,0.7-3.1,1.6-4.5,2.5c-2.9,2-5.4,4.3-7.6,7
	c-4.1,5.4-6.1,12.4-5,19.1c1.1,6.8,5,13,10.6,17.3c7.2,5.4,14.8,7.6,25,7.6c10.2,0,18-2.2,25-7.6c5.6-4.1,9.5-10.3,10.6-17.3
	c1.1-6.8-0.9-13.7-5-19.1c-2.2-2.7-4.7-5-7.6-7c-1.4-0.9-2.9-1.8-4.5-2.5c-1.1-0.5-2.7-0.9-1.8,0.9c2.2,4.1,3.2,7.9,2.5,12.6
	c-0.5,4-2.2,7.7-4.7,10.6c-3.6,4.3-9.2,6.7-14.8,6.7C1114.5,340.5,1108.9,338.4,1105.3,334.1z M1130.9,251.1c0-0.5-0.4-0.9-0.9-0.9
	h-19.6c-0.5,0-0.9,0.4-0.9,0.9c0,0,0,20.5,0,21.6c0,2.3,0.2,3.2-4.3,2.7c-5.2-0.7-32-2.9-34.9-28.6c-0.4-2.9-1.4-2.3-3.6-0.9
	c-3.4,2-5.8,5.4-6.8,9c-0.5,1.8-0.9,3.8-0.9,5.8c0,2.2-0.7,2.5-2.5,3.4c-0.9,0.4-12.6,5.6-12.6,22.9s11.7,22.5,12.6,22.9
	c1.8,0.9,2.5,1.3,2.5,3.4c0,2,0.4,3.8,0.9,5.8c1.3,3.6,3.4,7,6.8,9c2.2,1.3,3.2,2,3.6-0.9c2.9-25.7,29.7-27.9,34.9-28.6
	c4.5-0.5,4.3,0.4,4.3,2.7c0,1.1,0,21.6,0,21.6c0,0.5,0.4,0.9,0.9,0.9h19.6c0.5,0,0.9-0.4,0.9-0.9c0,0,0-20.5,0-21.6
	c0-2.3-0.2-3.2,4.3-2.7c5.2,0.7,32,2.9,34.9,28.6c0.4,2.9,1.4,2.3,3.6,0.9c3.4-2,5.8-5.4,6.8-9c0.5-1.8,0.9-3.8,0.9-5.8
	c0-2.2,0.7-2.5,2.5-3.4c0.9-0.4,12.6-5.6,12.6-22.9s-11.7-22.5-12.6-22.9c-1.8-0.9-2.5-1.3-2.5-3.4c0-2-0.4-3.8-0.9-5.8
	c-1.3-3.6-3.4-7-6.8-9c-2.2-1.3-3.2-2-3.6,0.9c-2.9,25.7-29.7,27.9-34.9,28.6c-4.5,0.5-4.3-0.4-4.3-2.7
	C1130.9,271.4,1130.9,251.1,1130.9,251.1z"/>
<path fill="#FFFFFF" stroke="#FFFFFF" stroke-width="0.3415" stroke-miterlimit="10" d="M1145.1,468.2c-2.2,0.2-2.9,2.5-7.6,2.5
	s-9.7,0-14.9,0c0-10.1,0-19.3,0-21.6c0-4-5.8-1.3-6.8,0.9c-0.7,1.4,1.6,0.9,1.6,4.3c0,2.5,0,9,0,16.4c-5.8,0-11.7,0-17.6,0
	c-1.4,0-2.9-0.2-4.3-0.2c-0.7,0-1.6-0.5-2.3,0.2c-1.1,1.1-3.2,4.1-0.9,4.3c2.2,0,4.3-1.3,10.6-1.3c4.5,0,9.4,0,14.6,0
	c0,11.7,0,24.8,0,28.4c0,4.7,5.2,1.8,5.2-2.3c0-1.8,0-14,0-26.1c6.8,0,14,0,21.2,0c2.5,0,4.5,0.2,4.7-0.9
	C1149.1,471.6,1147.3,468,1145.1,468.2z"/>
<g>
	<path fill="#FFFFFF" stroke="#FFFFFF" stroke-width="0.3415" stroke-miterlimit="10" d="M1115.8,537.3c0.9-1.4,1.1-3.4-2-3.4
		c-1.3,0-2-0.2-4,2.9c-4,6.5-8.6,10.1-18,12.4c-1.4,0.4-2.7,1.1,0,1.1C1101.6,550.4,1111.5,545.2,1115.8,537.3z"/>
	<path fill="#FFFFFF" stroke="#FFFFFF" stroke-width="0.3415" stroke-miterlimit="10" d="M1145.1,546.1c-5.6-1.6-13-5.8-21.6-14
		c5.4,0,11.3,0,16.9,0c2.5,0,4.5-0.5,4.7-1.3c0.4-1.3-1.4-4.3-3.6-4.1s-2.3,2.2-6.8,2.2c-2.2,0-7,0-12.6,0c0-1.8,0-3.2,0-4.3
		c0.2,0,0.5,0,0.7-0.2c2.9-0.5,8.5-1.4,8.5-4.5c0-0.9-0.9-2.3-2-2.7c-3.1-1.3-3.6,0.5-5,1.3c-2.3,1.3-4.5,2.3-7.2,3.1
		c-3.4,1.1-7,1.3-10.6,0.9c-1.8-0.2-1.4,1.6,0,1.8c2.2,0.4,4.5,0.7,6.7,0.7c1.6,0,3.1,0,4.7,0c0,0.9,0,2.2,0,3.8
		c-8.8,0-17.6,0-18.5,0c-0.7,0-2.2-0.2-2.9,0.4c-1.1,0.9-2,4,0.4,4.1c2.2,0,3.8-1.1,10.1-1.1c2,0,6.1,0,11,0c0,6.8,0,15.3,0,16
		c0,4.5,4.3,1.3,4.3-1.1c0-4.1,0-9.2,0-13.7c4.1,7.7,10.3,12.4,16.7,16c2.7,1.4,3.8,1.4,5.9,0.9c1.4-0.4,2.5-0.9,3.8-1.6
		C1150.5,547.2,1148.4,547,1145.1,546.1z"/>
	<path fill="#FFFFFF" stroke="#FFFFFF" stroke-width="0.3415" stroke-miterlimit="10" d="M1135.9,566.8c-0.5-0.4-1.3-0.5-2-0.5
		c0-4.1,0-9,0-10.3c0-2.3,1.1-5.4-2-5.4c-2.2,0-2.5,1.3-4.9,1.3h-16.4c-0.2-0.4-0.5-0.5-0.9-0.9c-2.7-1.1-4,0-4.7,1.6
		c-0.5,0.9,1.3,1.4,1.3,3.2c0,0.4,0,1.1,0,2.2c-0.5,0-1.1-0.2-1.4-0.2c-3.2-0.7-1.1,4,1.4,4.5c0,3.8,0,8.5,0,10.6
		c0,3.4,4.1,1.6,4.1-0.2c0-0.4,0-1.1,0-2c0.7,0.2,1.8,0.4,3.2,0.4c2.7,0,10.4-0.5,15.7-0.5c0,0.5,0,1.1,0,1.6c0,5,4.3,3.1,4.3-0.2
		c0-0.2,0-0.5,0-0.9c1.3,0.2,2.5,0.2,3.1-0.4C1138.1,569.7,1136.8,567.3,1135.9,566.8z M1110.7,568.1c0-1.8,0-3.8,0-5.8
		c1.1-0.2,2.3-0.4,3.4-0.4c2.7-0.4,5.4-0.7,8.1-0.7C1127.3,561,1116.5,566.6,1110.7,568.1z M1115.4,569c-1.1-0.7,1.6-2.3,2.2-2.5
		c3.2-1.6,3.6-2,6.5-3.2c1.3-0.5,2.5-1.1,3.8-1.8c0.7-0.4,1.3-1.3,0.9-2.2c-0.2-0.7-0.5-1.3-1.6-1.3c-0.7,0-2.5,0.2-4.3,0.2
		c-4,0.2-8.5,0.2-11.9,0.2c0-0.2,0-0.4,0-0.5c0-1.6,0.2-2.7,0.4-3.8h16.2c0.9,0,1.4,0,2,0.4c0.4,0.2,0.4,1.4,0.4,3.1
		c0,2.3,0,5.9,0,9.2C1126.4,567.2,1116.1,569.5,1115.4,569z"/>
</g>
<g>
	
		<path fill="#FFFFFF" stroke="#FFFFFF" stroke-width="0.4513" stroke-linecap="round" stroke-linejoin="round" stroke-miterlimit="10" d="
		M1096.9,593.1v0.5h-3.4v8.6h-0.7v-8.6h-3.4v-0.5H1096.9z"/>
	
		<path fill="#FFFFFF" stroke="#FFFFFF" stroke-width="0.4513" stroke-linecap="round" stroke-linejoin="round" stroke-miterlimit="10" d="
		M1107,593.1c1.4,0,2.5,0.5,3.4,1.4s1.4,2,1.4,3.4c0,1.3-0.5,2.5-1.4,3.4s-2.2,1.4-3.4,1.4c-1.4,0-2.5-0.5-3.4-1.4s-1.4-2-1.4-3.4
		c0-1.3,0.5-2.5,1.4-3.4C1104.4,593.4,1105.7,593.1,1107,593.1z M1107,601.9c1.1,0,2.2-0.4,2.9-1.3c0.7-0.7,1.3-1.8,1.3-2.9
		s-0.4-2.2-1.3-2.9c-0.7-0.7-1.8-1.3-2.9-1.3s-2.2,0.4-2.9,1.3c-0.7,0.7-1.3,1.8-1.3,2.9s0.4,2.2,1.3,2.9
		C1104.8,601.4,1105.9,601.9,1107,601.9z"/>
	
		<path fill="#FFFFFF" stroke="#FFFFFF" stroke-width="0.4513" stroke-linecap="round" stroke-linejoin="round" stroke-miterlimit="10" d="
		M1123.2,597.6v0.7h-5.8v-0.7H1123.2z"/>
	
		<path fill="#FFFFFF" stroke="#FFFFFF" stroke-width="0.4513" stroke-linecap="round" stroke-linejoin="round" stroke-miterlimit="10" d="
		M1135.8,593.1l-4.5,4.7l4.9,4.7h-0.9l-4.9-4.7v4.7h-0.7v-9.2h0.7v4.7l4.5-4.7h0.9V593.1z"/>
	
		<path fill="#FFFFFF" stroke="#FFFFFF" stroke-width="0.4513" stroke-linecap="round" stroke-linejoin="round" stroke-miterlimit="10" d="
		M1145.7,593.1l4.3,9.4h-0.7l-1.4-3.2h-4.5l-1.4,3.2h-0.7L1145.7,593.1L1145.7,593.1z M1147.5,598.5l-2-4.3l-2,4.3H1147.5z"/>
</g>
</svg>
