<?xml version="1.0" encoding="utf-8"?>
<!-- Generator: Adobe Illustrator 17.1.0, SVG Export Plug-In . SVG Version: 6.00 Build 0)  -->
<!DOCTYPE svg PUBLIC "-//W3C//DTD SVG 1.1//EN" "http://www.w3.org/Graphics/SVG/1.1/DTD/svg11.dtd">
<svg version="1.1" xmlns="http://www.w3.org/2000/svg" xmlns:xlink="http://www.w3.org/1999/xlink" x="0px" y="0px"
	 viewBox="0 0 120 120" enable-background="new 0 0 120 120" xml:space="preserve">
<g id="bg">
</g>
<g id="contants">
	<path fill="#B7CEDA" d="M120,60c0,33.137-26.863,60-60,60S0,93.137,0,60S26.863,0,60,0S120,26.863,120,60z M60,24.181
		c3.786,0,7.416,1.474,9.876,4.397c1.692,2.011,2.748,4.531,3.109,7.127c0.431,3.097-0.251,5.694-1.724,8.419
		c-0.623,1.153,0.515,0.892,1.18,0.573c1.035-0.496,2.034-1.08,2.985-1.723c1.904-1.288,3.625-2.859,5.014-4.693
		c2.751-3.633,4.037-8.238,3.34-12.761c-0.711-4.614-3.39-8.7-7.081-11.501c-4.753-3.607-9.81-4.999-16.7-4.999
		s-11.947,1.392-16.7,4.999c-3.692,2.802-6.37,6.887-7.081,11.501c-0.697,4.523,0.589,9.129,3.34,12.761
		c1.389,1.835,3.11,3.406,5.014,4.693c0.951,0.643,1.95,1.226,2.985,1.723c0.665,0.319,1.803,0.579,1.18-0.573
		c-1.472-2.726-2.154-5.323-1.724-8.419c0.361-2.596,1.417-5.116,3.109-7.127C52.584,25.655,56.214,24.181,60,24.181z
		 M50.124,91.421c-1.692-2.011-2.748-4.531-3.109-7.127c-0.431-3.097,0.251-5.694,1.724-8.419c0.623-1.153-0.515-0.892-1.18-0.573
		c-1.035,0.496-2.034,1.08-2.985,1.723c-1.904,1.288-3.625,2.859-5.014,4.693c-2.751,3.633-4.037,8.238-3.34,12.761
		c0.711,4.614,3.39,8.7,7.081,11.501c4.753,3.607,9.81,4.999,16.7,4.999s11.947-1.392,16.7-4.999
		c3.692-2.802,6.37-6.887,7.081-11.501c0.697-4.523-0.589-9.129-3.34-12.761c-1.389-1.835-3.11-3.406-5.014-4.693
		c-0.951-0.643-1.95-1.226-2.985-1.723c-0.665-0.319-1.803-0.579-1.18,0.573c1.472,2.726,2.154,5.323,1.724,8.419
		c-0.361,2.596-1.417,5.116-3.109,7.127c-2.46,2.923-6.09,4.397-9.876,4.397S52.584,94.345,50.124,91.421z M67.162,36.1
		c0-0.345-0.282-0.627-0.627-0.627h-13.07c-0.345,0-0.627,0.282-0.627,0.627c0,0,0,13.626,0,14.401c0,1.588,0.06,2.198-2.891,1.797
		c-3.468-0.472-21.409-1.921-23.274-19.064c-0.213-1.954-0.932-1.501-2.402-0.638c-2.245,1.317-3.785,3.607-4.574,6.038
		c-0.394,1.215-0.639,2.511-0.645,3.791c-0.006,1.387-0.436,1.659-1.675,2.286C16.801,45.002,9.021,48.432,9.021,60
		s7.78,14.998,8.357,15.29c1.238,0.627,1.669,0.899,1.675,2.286c0.005,1.28,0.25,2.576,0.645,3.791
		c0.789,2.431,2.329,4.721,4.574,6.038c1.47,0.863,2.19,1.316,2.402-0.638c1.866-17.143,19.806-18.592,23.274-19.064
		c2.951-0.402,2.891,0.208,2.891,1.797c0,0.776,0,14.401,0,14.401c0,0.345,0.282,0.627,0.627,0.627h13.07
		c0.345,0,0.627-0.282,0.627-0.627c0,0,0-13.626,0-14.401c0-1.588-0.06-2.198,2.891-1.797c3.468,0.472,21.409,1.921,23.274,19.064
		c0.213,1.954,0.932,1.501,2.402,0.638c2.245-1.317,3.785-3.607,4.574-6.038c0.394-1.215,0.639-2.511,0.645-3.791
		c0.006-1.387,0.436-1.659,1.675-2.286c0.577-0.292,8.357-3.722,8.357-15.29s-7.78-14.998-8.357-15.29
		c-1.238-0.627-1.669-0.899-1.675-2.286c-0.005-1.28-0.25-2.576-0.645-3.791c-0.789-2.431-2.329-4.721-4.574-6.038
		c-1.47-0.863-2.19-1.316-2.402,0.638c-1.866,17.143-19.806,18.592-23.274,19.064c-2.951,0.402-2.891-0.208-2.891-1.797
		C67.162,49.726,67.162,36.1,67.162,36.1z"/>
</g>
</svg>
